<?xml version="1.0" encoding="utf-8"?>
<!-- Generator: Adobe Illustrator 27.5.0, SVG Export Plug-In . SVG Version: 6.00 Build 0)  -->
<svg version="1.1" id="Layer_1" xmlns="http://www.w3.org/2000/svg" xmlns:xlink="http://www.w3.org/1999/xlink" x="0px" y="0px"
	 viewBox="0 0 700 580" style="enable-background:new 0 0 700 580;" xml:space="preserve">
<style type="text/css">
	.st0{fill:#FFFFFF;}
	.st1{fill:none;}
	.st2{fill:none;stroke:#C0C0C0;}
	.st3{fill:none;stroke:#D1D1D1;stroke-width:0.5;stroke-dasharray:4,1.5;}
	.st4{fill:none;stroke:#808080;stroke-width:1.2;}
	.st5{font-family:'Verdana-Bold';}
	.st6{font-size:11px;}
	.st7{clip-path:url(#SVGID_00000049218249366636777650000009939547024457879439_);}
	.st8{fill:#910000;stroke:#FFFFFF;}
	.st9{fill:#2F7ED8;stroke:#FFFFFF;}
	.st10{fill:#0D233A;stroke:#FFFFFF;}
	.st11{fill:#8BBC21;stroke:#FFFFFF;}
	.st12{font-family:'Helvetica-Bold';}
	.st13{font-size:14px;}
	.st14{letter-spacing:-3;}
	.st15{font-family:'Verdana';}
	.st16{font-size:10.5px;}
	.st17{font-family:'.LucidaGrandeUI';}
	.st18{font-size:9px;}
</style>
<rect class="st0" width="700" height="580"/>
<rect x="50" y="100" class="st1" width="600" height="400"/>
<g>
	<path class="st2" d="M50,300.5h600"/>
</g>
<g>
	<path class="st1" d="M199.5,100v400"/>
	<path class="st1" d="M349.5,100v400"/>
	<path class="st1" d="M499.5,100v400"/>
	<path class="st1" d="M649.5,100v400"/>
	<path class="st1" d="M49.5,100v400"/>
</g>
<g>
	<path class="st3" d="M50,500.2h600"/>
	<path class="st3" d="M50,433.2h600"/>
	<path class="st3" d="M50,367.2h600"/>
	<path class="st3" d="M50,300.2h600"/>
	<path class="st3" d="M50,233.2h600"/>
	<path class="st3" d="M50,167.2h600"/>
	<path class="st3" d="M50,99.8h600"/>
</g>
<rect x="50" y="100" class="st1" width="600" height="400"/>
<g>
	<path class="st4" d="M50,500.6h600"/>
</g>
<g>
	<text transform="matrix(1 0 0 1 23.7832 80)" class="st5 st6">Percent</text>
	<path class="st4" d="M49.4,100v400"/>
</g>
<g>
	<g>
		<defs>
			<rect id="SVGID_1_" x="50" y="100" width="600" height="400"/>
		</defs>
		<clipPath id="SVGID_00000029733745762110847410000004529979667090467766_">
			<use xlink:href="#SVGID_1_"  style="overflow:visible;"/>
		</clipPath>
		
			<g transform="translate(50,100) scale(1 1)" style="clip-path:url(#SVGID_00000029733745762110847410000004529979667090467766_);">
			<rect x="34.5" y="97.5" class="st8" width="80" height="103"/>
			<rect x="184.5" y="103.5" class="st9" width="80" height="97"/>
			<rect x="334.5" y="200.5" class="st10" width="80" height="180"/>
			<rect x="484.5" y="67.5" class="st11" width="80" height="133"/>
		</g>
	</g>
	<g transform="translate(50,100) scale(1 1)">
	</g>
</g>
<text transform="matrix(1 0 0 1 10 21)" class="st12 st13">12-month percentage change, Consumer Price Index, selected categories, November 2023, not</text>
<text transform="matrix(1 0 0 1 10 38)" class="st12 st13 st14">​</text>
<text transform="matrix(1 0 0 1 10 38)" class="st12 st13">seasonally adjusted</text>
<g>
	<text transform="matrix(1 0 0 1 102.2056 522)" class="st15 st16">All items</text>
	<text transform="matrix(1 0 0 1 262.4672 522)" class="st15 st16">Food</text>
	<text transform="matrix(1 0 0 1 406.6122 522)" class="st15 st16">Energy</text>
	<text transform="matrix(1 0 0 1 526.9861 522)" class="st15 st16">All items less food</text>
	<text transform="matrix(1 0 0 1 539.9624 539)" class="st15 st16 st14">​</text>
	<text transform="matrix(1 0 0 1 550.4624 539)" class="st15 st16">and energy</text>
</g>
<g>
	<text transform="matrix(1 0 0 1 11.2437 505)" class="st17 st6">-6.0</text>
	<text transform="matrix(1 0 0 1 11.2437 438)" class="st17 st6">-4.0</text>
	<text transform="matrix(1 0 0 1 11.2437 371)" class="st17 st6">-2.0</text>
	<text transform="matrix(1 0 0 1 17.6084 305)" class="st17 st6">0.0</text>
	<text transform="matrix(1 0 0 1 17.6084 238)" class="st17 st6">2.0</text>
	<text transform="matrix(1 0 0 1 17.6084 171)" class="st17 st6">4.0</text>
	<text transform="matrix(1 0 0 1 17.6084 105)" class="st17 st6">6.0</text>
</g>
<text transform="matrix(1 0 0 1 10 575)" class="st17 st18">Source: U.S. Bureau of Labor Statistics.</text>
</svg>
